<svg xmlns="http://www.w3.org/2000/svg" xmlns:xlink="http://www.w3.org/1999/xlink" width="259.367" height="278.448" viewBox="0 0 259.367 278.448">
  <defs>
    <filter id="Exclusion_1" x="0" y="0" width="257.367" height="276.448" filterUnits="userSpaceOnUse">
      <feOffset dx="-1" dy="-1" input="SourceAlpha"/>
      <feGaussianBlur stdDeviation="0.5" result="blur"/>
      <feFlood flood-opacity="0.302"/>
      <feComposite operator="in" in2="blur"/>
      <feComposite in="SourceGraphic"/>
    </filter>
    <filter id="Exclusion_2" x="2" y="2" width="257.367" height="276.448" filterUnits="userSpaceOnUse">
      <feOffset dx="1" dy="1" input="SourceAlpha"/>
      <feGaussianBlur stdDeviation="0.5" result="blur-2"/>
      <feFlood flood-color="#fff"/>
      <feComposite operator="in" in2="blur-2"/>
      <feComposite in="SourceGraphic"/>
    </filter>
  </defs>
  <g id="calcilator" transform="translate(-1007.502 -379.139)">
    <g transform="matrix(1, 0, 0, 1, 1007.5, 379.14)" filter="url(#Exclusion_1)">
      <path id="Exclusion_1-2" data-name="Exclusion 1" d="M729.017,374.087a51.95,51.95,0,0,1-51.842-49.352c-.539-9.972.173-18.012,2.24-25.3A56.71,56.71,0,0,1,693.074,275.8c-.382,14.852,1.536,25.186,12.475,34.054-5.033-22.8-3.418-40.977,4.934-55.563V121.3a20.658,20.658,0,0,1,20.659-20.659H910.71A20.658,20.658,0,0,1,931.369,121.3V353.307a20.658,20.658,0,0,1-20.659,20.659H733.422c-.5,0-1.038.017-1.749.056h-.008C730.788,374.065,729.9,374.087,729.017,374.087ZM735.936,230h0a19.042,19.042,0,0,0-2.1,4.534,23.764,23.764,0,0,0-.74,11.774c1.732,9.167,8.586,17.783,20.374,25.609,19.58,12.984,28.578,30.073,27.508,52.242A51.947,51.947,0,0,1,754.2,367.609H910.71a14.319,14.319,0,0,0,14.3-14.3V121.3a14.318,14.318,0,0,0-14.3-14.3h-50v13.443h38.48a8.75,8.75,0,0,1,8.74,8.741v32.576a8.75,8.75,0,0,1-8.74,8.74H742.662a8.75,8.75,0,0,1-8.74-8.74V129.18a8.75,8.75,0,0,1,8.74-8.741h38.488V107H731.141a14.318,14.318,0,0,0-14.3,14.3V245.344a65.7,65.7,0,0,1,8.451-8.11A82.956,82.956,0,0,1,735.936,230Zm-23.521,125.99h0a35.14,35.14,0,0,0,5.648,3.074,35.648,35.648,0,0,0,14.334,2.98h.111a36.472,36.472,0,0,0,36.288-36.47,35.812,35.812,0,0,0-6.134-19.967,42.31,42.31,0,0,1,.214,4.243A46.4,46.4,0,0,1,717.133,356.2c-.158.008-.32.008-.476.008A42.3,42.3,0,0,1,712.415,355.992Zm30.247-229.2a2.387,2.387,0,0,0-2.384,2.384v32.576a2.386,2.386,0,0,0,2.384,2.383H899.189a2.386,2.386,0,0,0,2.383-2.383V129.18a2.386,2.386,0,0,0-2.383-2.384ZM787.507,107h0v13.443h66.845V107H787.507Zm38.847,254.257A22.248,22.248,0,1,1,848.6,339,22.273,22.273,0,0,1,826.354,361.253Zm0-38.138A15.891,15.891,0,1,0,842.244,339,15.909,15.909,0,0,0,826.354,323.114Zm59.591,37.344A22.272,22.272,0,0,1,863.7,338.211V291.332a22.247,22.247,0,0,1,44.495,0v46.879A22.273,22.273,0,0,1,885.945,360.458Zm0-85.018a15.909,15.909,0,0,0-15.89,15.891v46.879a15.891,15.891,0,0,0,31.782,0V291.332A15.909,15.909,0,0,0,885.945,275.44Zm-61.18,36.152a22.247,22.247,0,1,1,22.247-22.247A22.273,22.273,0,0,1,824.765,311.593Zm0-38.138a15.891,15.891,0,1,0,15.891,15.891A15.909,15.909,0,0,0,824.765,273.454Zm61.18-11.521a22.248,22.248,0,1,1,22.248-22.247A22.272,22.272,0,0,1,885.945,261.933Zm0-38.138a15.891,15.891,0,1,0,15.891,15.891A15.909,15.909,0,0,0,885.945,223.795Zm-61.18,38.138a22.248,22.248,0,1,1,22.247-22.247A22.273,22.273,0,0,1,824.765,261.933Zm0-38.138a15.891,15.891,0,1,0,15.891,15.891A15.909,15.909,0,0,0,824.765,223.795Zm-61.18,38.138a22.248,22.248,0,1,1,22.247-22.247A22.273,22.273,0,0,1,763.584,261.933Zm0-38.138a15.891,15.891,0,1,0,15.891,15.891A15.909,15.909,0,0,0,763.584,223.795Zm127.524-28.6H751.267a5.959,5.959,0,0,1,0-11.919H891.108a5.959,5.959,0,0,1,0,11.919ZM762.439,158.578a3.182,3.182,0,0,1-3.179-3.179v-6.754h-6.754a3.178,3.178,0,0,1,0-6.357h6.754v-6.754a3.178,3.178,0,0,1,6.357,0v6.754h6.754a3.178,3.178,0,1,1,0,6.357h-6.754V155.4A3.182,3.182,0,0,1,762.439,158.578Zm124.746-8.343a4.767,4.767,0,1,1,4.767-4.767A4.773,4.773,0,0,1,887.185,150.235Zm-12.26,0a4.767,4.767,0,1,1,4.767-4.767A4.773,4.773,0,0,1,874.925,150.235Zm-12.261,0a4.767,4.767,0,1,1,4.767-4.767A4.773,4.773,0,0,1,862.664,150.235Zm-12.261,0a4.767,4.767,0,1,1,4.767-4.767A4.773,4.773,0,0,1,850.4,150.235Z" transform="translate(-674.5 -98.14)" fill="#fff"/>
    </g>
    <g transform="matrix(1, 0, 0, 1, 1007.5, 379.14)" filter="url(#Exclusion_2)">
      <path id="Exclusion_2-2" data-name="Exclusion 2" d="M729.017,374.087a51.95,51.95,0,0,1-51.842-49.352c-.539-9.972.173-18.012,2.24-25.3A56.71,56.71,0,0,1,693.074,275.8c-.382,14.852,1.536,25.186,12.475,34.054-5.033-22.8-3.418-40.977,4.934-55.563V121.3a20.658,20.658,0,0,1,20.659-20.659H910.71A20.658,20.658,0,0,1,931.369,121.3V353.307a20.658,20.658,0,0,1-20.659,20.659H733.422c-.5,0-1.038.017-1.749.056h-.008C730.788,374.065,729.9,374.087,729.017,374.087ZM735.936,230h0a19.042,19.042,0,0,0-2.1,4.534,23.764,23.764,0,0,0-.74,11.774c1.732,9.167,8.586,17.783,20.374,25.609,19.58,12.984,28.578,30.073,27.508,52.242A51.947,51.947,0,0,1,754.2,367.609H910.71a14.319,14.319,0,0,0,14.3-14.3V121.3a14.318,14.318,0,0,0-14.3-14.3h-50v13.443h38.48a8.75,8.75,0,0,1,8.74,8.741v32.576a8.75,8.75,0,0,1-8.74,8.74H742.662a8.75,8.75,0,0,1-8.74-8.74V129.18a8.75,8.75,0,0,1,8.74-8.741h38.488V107H731.141a14.318,14.318,0,0,0-14.3,14.3V245.344a65.7,65.7,0,0,1,8.451-8.11A82.956,82.956,0,0,1,735.936,230Zm-23.521,125.99h0a35.14,35.14,0,0,0,5.648,3.074,35.648,35.648,0,0,0,14.334,2.98h.111a36.472,36.472,0,0,0,36.288-36.47,35.812,35.812,0,0,0-6.134-19.967,42.31,42.31,0,0,1,.214,4.243A46.4,46.4,0,0,1,717.133,356.2c-.158.008-.32.008-.476.008A42.3,42.3,0,0,1,712.415,355.992Zm30.247-229.2a2.387,2.387,0,0,0-2.384,2.384v32.576a2.386,2.386,0,0,0,2.384,2.383H899.189a2.386,2.386,0,0,0,2.383-2.383V129.18a2.386,2.386,0,0,0-2.383-2.384ZM787.507,107h0v13.443h66.845V107H787.507Zm38.847,254.257A22.248,22.248,0,1,1,848.6,339,22.273,22.273,0,0,1,826.354,361.253Zm0-38.138A15.891,15.891,0,1,0,842.244,339,15.909,15.909,0,0,0,826.354,323.114Zm59.591,37.344A22.272,22.272,0,0,1,863.7,338.211V291.332a22.247,22.247,0,0,1,44.495,0v46.879A22.273,22.273,0,0,1,885.945,360.458Zm0-85.018a15.909,15.909,0,0,0-15.89,15.891v46.879a15.891,15.891,0,0,0,31.782,0V291.332A15.909,15.909,0,0,0,885.945,275.44Zm-61.18,36.152a22.247,22.247,0,1,1,22.247-22.247A22.273,22.273,0,0,1,824.765,311.593Zm0-38.138a15.891,15.891,0,1,0,15.891,15.891A15.909,15.909,0,0,0,824.765,273.454Zm61.18-11.521a22.248,22.248,0,1,1,22.248-22.247A22.272,22.272,0,0,1,885.945,261.933Zm0-38.138a15.891,15.891,0,1,0,15.891,15.891A15.909,15.909,0,0,0,885.945,223.795Zm-61.18,38.138a22.248,22.248,0,1,1,22.247-22.247A22.273,22.273,0,0,1,824.765,261.933Zm0-38.138a15.891,15.891,0,1,0,15.891,15.891A15.909,15.909,0,0,0,824.765,223.795Zm-61.18,38.138a22.248,22.248,0,1,1,22.247-22.247A22.273,22.273,0,0,1,763.584,261.933Zm0-38.138a15.891,15.891,0,1,0,15.891,15.891A15.909,15.909,0,0,0,763.584,223.795Zm127.524-28.6H751.267a5.959,5.959,0,0,1,0-11.919H891.108a5.959,5.959,0,0,1,0,11.919ZM762.439,158.578a3.182,3.182,0,0,1-3.179-3.179v-6.754h-6.754a3.178,3.178,0,0,1,0-6.357h6.754v-6.754a3.178,3.178,0,0,1,6.357,0v6.754h6.754a3.178,3.178,0,1,1,0,6.357h-6.754V155.4A3.182,3.182,0,0,1,762.439,158.578Zm124.746-8.343a4.767,4.767,0,1,1,4.767-4.767A4.773,4.773,0,0,1,887.185,150.235Zm-12.26,0a4.767,4.767,0,1,1,4.767-4.767A4.773,4.773,0,0,1,874.925,150.235Zm-12.261,0a4.767,4.767,0,1,1,4.767-4.767A4.773,4.773,0,0,1,862.664,150.235Zm-12.261,0a4.767,4.767,0,1,1,4.767-4.767A4.773,4.773,0,0,1,850.4,150.235Z" transform="translate(-674.5 -98.14)" fill="#fff"/>
    </g>
  </g>
</svg>
