<svg xmlns="http://www.w3.org/2000/svg" xmlns:xlink="http://www.w3.org/1999/xlink" width="186.231" height="199.827" viewBox="0 0 186.231 199.827">
  <defs>
    <linearGradient id="linear-gradient" x1="0.5" x2="0.5" y2="1" gradientUnits="objectBoundingBox">
      <stop offset="0" stop-color="#8f3cc3"/>
      <stop offset="1" stop-color="#6a7cd8"/>
    </linearGradient>
    <filter id="Exclusion_1" x="0" y="0" width="184.231" height="197.827" filterUnits="userSpaceOnUse">
      <feOffset dx="-1" dy="-1" input="SourceAlpha"/>
      <feGaussianBlur stdDeviation="0.5" result="blur"/>
      <feFlood flood-opacity="0.302"/>
      <feComposite operator="in" in2="blur"/>
      <feComposite in="SourceGraphic"/>
    </filter>
    <filter id="Exclusion_2" x="2" y="2" width="184.231" height="197.827" filterUnits="userSpaceOnUse">
      <feOffset dx="1" dy="1" input="SourceAlpha"/>
      <feGaussianBlur stdDeviation="0.5" result="blur-2"/>
      <feFlood flood-color="#fff"/>
      <feComposite operator="in" in2="blur-2"/>
      <feComposite in="SourceGraphic"/>
    </filter>
  </defs>
  <g id="calcilator" transform="translate(-1007.501 -379.139)">
    <g transform="matrix(1, 0, 0, 1, 1007.5, 379.14)" filter="url(#Exclusion_1)">
      <path id="Exclusion_1-2" data-name="Exclusion 1" d="M37.06,194.827A37.016,37.016,0,0,1,.122,159.664a54.2,54.2,0,0,1,1.6-18.027A40.409,40.409,0,0,1,11.45,124.8c-.272,10.582,1.094,17.944,8.888,24.263-3.585-16.246-2.435-29.2,3.515-39.587V14.719A14.719,14.719,0,0,1,38.572,0H166.512A14.718,14.718,0,0,1,181.23,14.719v165.3a14.718,14.718,0,0,1-14.719,14.719H40.2c-.367,0-.774.013-1.245.04h-.006C38.323,194.811,37.689,194.827,37.06,194.827ZM41.987,92.169h0a13.611,13.611,0,0,0-1.5,3.229,16.932,16.932,0,0,0-.527,8.389c1.234,6.531,6.118,12.67,14.516,18.247,13.951,9.251,20.362,21.426,19.6,37.221A37.007,37.007,0,0,1,55,190.211H166.512a10.2,10.2,0,0,0,10.191-10.19V14.719a10.2,10.2,0,0,0-10.191-10.19H130.887v9.579H158.3a6.234,6.234,0,0,1,6.227,6.227v23.21a6.234,6.234,0,0,1-6.227,6.227H46.781a6.234,6.234,0,0,1-6.227-6.227V20.335a6.234,6.234,0,0,1,6.227-6.227H74.2V4.529H38.572a10.2,10.2,0,0,0-10.19,10.19V103.1A52.444,52.444,0,0,1,41.987,92.169ZM25.23,181.935h0a25.085,25.085,0,0,0,4.024,2.189,25.4,25.4,0,0,0,10.213,2.123h.078A25.986,25.986,0,0,0,65.4,160.264a25.518,25.518,0,0,0-4.37-14.226,30.241,30.241,0,0,1,.153,3.023,33.059,33.059,0,0,1-32.591,33.021c-.113.005-.229.005-.34.005A30.2,30.2,0,0,1,25.23,181.935Zm21.551-163.3a1.7,1.7,0,0,0-1.7,1.7v23.21a1.7,1.7,0,0,0,1.7,1.7H158.3a1.7,1.7,0,0,0,1.7-1.7V20.335a1.7,1.7,0,0,0-1.7-1.7ZM78.732,4.529v9.579h47.626V4.529ZM106.41,185.683a15.851,15.851,0,1,1,15.851-15.851A15.869,15.869,0,0,1,106.41,185.683Zm0-27.174a11.322,11.322,0,1,0,11.322,11.323A11.335,11.335,0,0,0,106.41,158.509Zm42.457,26.608a15.869,15.869,0,0,1-15.851-15.851v-33.4a15.851,15.851,0,0,1,31.7,0v33.4A15.869,15.869,0,0,1,148.867,185.117Zm0-60.574a11.335,11.335,0,0,0-11.322,11.322v33.4a11.322,11.322,0,0,0,22.644,0v-33.4A11.335,11.335,0,0,0,148.867,124.543ZM105.278,150.3a15.851,15.851,0,1,1,15.851-15.851A15.869,15.869,0,0,1,105.278,150.3Zm0-27.173A11.322,11.322,0,1,0,116.6,134.45,11.335,11.335,0,0,0,105.278,123.128Zm43.59-8.209a15.851,15.851,0,1,1,15.851-15.851A15.869,15.869,0,0,1,148.867,114.919Zm0-27.173a11.322,11.322,0,1,0,11.322,11.322A11.335,11.335,0,0,0,148.867,87.746Zm-43.59,27.173a15.851,15.851,0,1,1,15.851-15.851A15.869,15.869,0,0,1,105.278,114.919Zm0-27.173A11.322,11.322,0,1,0,116.6,99.068,11.335,11.335,0,0,0,105.278,87.746ZM61.687,114.919A15.851,15.851,0,1,1,77.539,99.068,15.869,15.869,0,0,1,61.687,114.919Zm0-27.173A11.322,11.322,0,1,0,73.01,99.068,11.335,11.335,0,0,0,61.687,87.746Zm90.859-20.38H52.912a4.246,4.246,0,0,1,0-8.491h99.634a4.246,4.246,0,0,1,0,8.491ZM60.872,41.28a2.267,2.267,0,0,1-2.264-2.264V34.2H53.795a2.265,2.265,0,0,1,0-4.53h4.812V24.863a2.264,2.264,0,0,1,4.529,0v4.811h4.811a2.265,2.265,0,0,1,0,4.53H63.136v4.811A2.267,2.267,0,0,1,60.872,41.28Zm88.879-5.944a3.4,3.4,0,1,1,3.4-3.4A3.4,3.4,0,0,1,149.75,35.336Zm-8.734,0a3.4,3.4,0,1,1,3.4-3.4A3.4,3.4,0,0,1,141.016,35.336Zm-8.735,0a3.4,3.4,0,1,1,3.4-3.4A3.4,3.4,0,0,1,132.28,35.336Zm-8.735,0a3.4,3.4,0,1,1,3.4-3.4A3.4,3.4,0,0,1,123.545,35.336Z" transform="translate(2.5 2.5)" fill="url(#linear-gradient)"/>
    </g>
    <g transform="matrix(1, 0, 0, 1, 1007.5, 379.14)" filter="url(#Exclusion_2)">
      <path id="Exclusion_2-2" data-name="Exclusion 2" d="M37.06,194.827A37.016,37.016,0,0,1,.122,159.664a54.2,54.2,0,0,1,1.6-18.027A40.409,40.409,0,0,1,11.45,124.8c-.272,10.582,1.094,17.944,8.888,24.263-3.585-16.246-2.435-29.2,3.515-39.587V14.719A14.719,14.719,0,0,1,38.572,0H166.512A14.718,14.718,0,0,1,181.23,14.719v165.3a14.718,14.718,0,0,1-14.719,14.719H40.2c-.367,0-.774.013-1.245.04h-.006C38.323,194.811,37.689,194.827,37.06,194.827ZM41.987,92.169h0a13.611,13.611,0,0,0-1.5,3.229,16.932,16.932,0,0,0-.527,8.389c1.234,6.531,6.118,12.67,14.516,18.247,13.951,9.251,20.362,21.426,19.6,37.221A37.007,37.007,0,0,1,55,190.211H166.512a10.2,10.2,0,0,0,10.191-10.19V14.719a10.2,10.2,0,0,0-10.191-10.19H130.887v9.579H158.3a6.234,6.234,0,0,1,6.227,6.227v23.21a6.234,6.234,0,0,1-6.227,6.227H46.781a6.234,6.234,0,0,1-6.227-6.227V20.335a6.234,6.234,0,0,1,6.227-6.227H74.2V4.529H38.572a10.2,10.2,0,0,0-10.19,10.19V103.1A52.444,52.444,0,0,1,41.987,92.169ZM25.23,181.935h0a25.085,25.085,0,0,0,4.024,2.189,25.4,25.4,0,0,0,10.213,2.123h.078A25.986,25.986,0,0,0,65.4,160.264a25.518,25.518,0,0,0-4.37-14.226,30.241,30.241,0,0,1,.153,3.023,33.059,33.059,0,0,1-32.591,33.021c-.113.005-.229.005-.34.005A30.2,30.2,0,0,1,25.23,181.935Zm21.551-163.3a1.7,1.7,0,0,0-1.7,1.7v23.21a1.7,1.7,0,0,0,1.7,1.7H158.3a1.7,1.7,0,0,0,1.7-1.7V20.335a1.7,1.7,0,0,0-1.7-1.7ZM78.732,4.529v9.579h47.626V4.529ZM106.41,185.683a15.851,15.851,0,1,1,15.851-15.851A15.869,15.869,0,0,1,106.41,185.683Zm0-27.174a11.322,11.322,0,1,0,11.322,11.323A11.335,11.335,0,0,0,106.41,158.509Zm42.457,26.608a15.869,15.869,0,0,1-15.851-15.851v-33.4a15.851,15.851,0,0,1,31.7,0v33.4A15.869,15.869,0,0,1,148.867,185.117Zm0-60.574a11.335,11.335,0,0,0-11.322,11.322v33.4a11.322,11.322,0,0,0,22.644,0v-33.4A11.335,11.335,0,0,0,148.867,124.543ZM105.278,150.3a15.851,15.851,0,1,1,15.851-15.851A15.869,15.869,0,0,1,105.278,150.3Zm0-27.173A11.322,11.322,0,1,0,116.6,134.45,11.335,11.335,0,0,0,105.278,123.128Zm43.59-8.209a15.851,15.851,0,1,1,15.851-15.851A15.869,15.869,0,0,1,148.867,114.919Zm0-27.173a11.322,11.322,0,1,0,11.322,11.322A11.335,11.335,0,0,0,148.867,87.746Zm-43.59,27.173a15.851,15.851,0,1,1,15.851-15.851A15.869,15.869,0,0,1,105.278,114.919Zm0-27.173A11.322,11.322,0,1,0,116.6,99.068,11.335,11.335,0,0,0,105.278,87.746ZM61.687,114.919A15.851,15.851,0,1,1,77.539,99.068,15.869,15.869,0,0,1,61.687,114.919Zm0-27.173A11.322,11.322,0,1,0,73.01,99.068,11.335,11.335,0,0,0,61.687,87.746Zm90.859-20.38H52.912a4.246,4.246,0,0,1,0-8.491h99.634a4.246,4.246,0,0,1,0,8.491ZM60.872,41.28a2.267,2.267,0,0,1-2.264-2.264V34.2H53.795a2.265,2.265,0,0,1,0-4.53h4.812V24.863a2.264,2.264,0,0,1,4.529,0v4.811h4.811a2.265,2.265,0,0,1,0,4.53H63.136v4.811A2.267,2.267,0,0,1,60.872,41.28Zm88.879-5.944a3.4,3.4,0,1,1,3.4-3.4A3.4,3.4,0,0,1,149.75,35.336Zm-8.734,0a3.4,3.4,0,1,1,3.4-3.4A3.4,3.4,0,0,1,141.016,35.336Zm-8.735,0a3.4,3.4,0,1,1,3.4-3.4A3.4,3.4,0,0,1,132.28,35.336Zm-8.735,0a3.4,3.4,0,1,1,3.4-3.4A3.4,3.4,0,0,1,123.545,35.336Z" transform="translate(2.5 2.5)" fill="url(#linear-gradient)"/>
    </g>
  </g>
</svg>
